# xmcd CD database file
#
# Track frame offsets:
#	150
#	34921
#	52884
#	76463
#	97607
#	117142
#	130716
#	150725
#	171009
#	197837
#	214337
#	235264
#	266556
#
# Disc length: 3826 seconds
#
# Revision: 0
# Processed by: cddbd v1.5.1PL0 Copyright (c) Steve Scherf et al.
# Submitted via: CDex 1.50Beta7
#
DISCID=a50ef00d
DTITLE=George Benson - Darlings Delight
DYEAR=2005
DGENRE=Jazz
TTITLE0=Everything Must Change
TTITLE1=I'll Keep Your Dreams Alive
TTITLE2=Love For Sale
TTITLE3=I'm Afraid - The Masquerade Is Over
TTITLE4=Witchcraft
TTITLE5=There Will Never Be Another You
TTITLE6=All Blues
TTITLE7=Blues Bossa
TTITLE8=Oleo
TTITLE9=Lil Darlin'
TTITLE10=All The Things You Are
TTITLE11=Darlings Delight
TTITLE12=Raise The World
EXTD=YEAR: 2005
EXTT0=
EXTT1=
EXTT2=
EXTT3=
EXTT4=
EXTT5=
EXTT6=
EXTT7=
EXTT8=
EXTT9=
EXTT10=
EXTT11=
EXTT12=
PLAYORDER=
